%TF.GenerationSoftware,KiCad,Pcbnew,7.0.2*%
%TF.CreationDate,2023-05-19T15:17:25+02:00*%
%TF.ProjectId,78_1x39_1mm Solr tile,37382c31-7833-4392-9c31-6d6d20536f6c,rev?*%
%TF.SameCoordinates,Original*%
%TF.FileFunction,Soldermask,Bot*%
%TF.FilePolarity,Negative*%
%FSLAX46Y46*%
G04 Gerber Fmt 4.6, Leading zero omitted, Abs format (unit mm)*
G04 Created by KiCad (PCBNEW 7.0.2) date 2023-05-19 15:17:25*
%MOMM*%
%LPD*%
G01*
G04 APERTURE LIST*
G04 Aperture macros list*
%AMRoundRect*
0 Rectangle with rounded corners*
0 $1 Rounding radius*
0 $2 $3 $4 $5 $6 $7 $8 $9 X,Y pos of 4 corners*
0 Add a 4 corners polygon primitive as box body*
4,1,4,$2,$3,$4,$5,$6,$7,$8,$9,$2,$3,0*
0 Add four circle primitives for the rounded corners*
1,1,$1+$1,$2,$3*
1,1,$1+$1,$4,$5*
1,1,$1+$1,$6,$7*
1,1,$1+$1,$8,$9*
0 Add four rect primitives between the rounded corners*
20,1,$1+$1,$2,$3,$4,$5,0*
20,1,$1+$1,$4,$5,$6,$7,0*
20,1,$1+$1,$6,$7,$8,$9,0*
20,1,$1+$1,$8,$9,$2,$3,0*%
G04 Aperture macros list end*
%ADD10C,3.450000*%
%ADD11RoundRect,0.250000X-0.875000X-1.025000X0.875000X-1.025000X0.875000X1.025000X-0.875000X1.025000X0*%
%ADD12RoundRect,0.250001X-1.074999X0.462499X-1.074999X-0.462499X1.074999X-0.462499X1.074999X0.462499X0*%
%ADD13RoundRect,0.250000X0.262500X0.450000X-0.262500X0.450000X-0.262500X-0.450000X0.262500X-0.450000X0*%
%ADD14R,1.700000X1.700000*%
%ADD15O,1.700000X1.700000*%
%ADD16RoundRect,0.088500X-0.596500X-0.206500X0.596500X-0.206500X0.596500X0.206500X-0.596500X0.206500X0*%
%ADD17RoundRect,0.088500X0.596500X0.206500X-0.596500X0.206500X-0.596500X-0.206500X0.596500X-0.206500X0*%
%ADD18RoundRect,0.250000X-1.025000X0.875000X-1.025000X-0.875000X1.025000X-0.875000X1.025000X0.875000X0*%
%ADD19R,2.700000X3.600000*%
%ADD20R,1.500000X1.100000*%
%ADD21R,2.400000X2.400000*%
%ADD22C,2.400000*%
G04 APERTURE END LIST*
D10*
%TO.C,REF\u002A\u002A*%
X103080000Y-112690000D03*
%TD*%
%TO.C,REF\u002A\u002A*%
X37440000Y-112260000D03*
%TD*%
%TO.C,REF\u002A\u002A*%
X103120000Y-39840000D03*
%TD*%
%TO.C,REF\u002A\u002A*%
X37190000Y-39940000D03*
%TD*%
D11*
%TO.C,MC5*%
X81900000Y-74440000D03*
X88300000Y-74440000D03*
%TD*%
D12*
%TO.C,MD1*%
X69100000Y-49060000D03*
X69100000Y-52035000D03*
%TD*%
D13*
%TO.C,MR7*%
X84117500Y-44225000D03*
X82292500Y-44225000D03*
%TD*%
D12*
%TO.C,MD3*%
X68710000Y-73250000D03*
X68710000Y-76225000D03*
%TD*%
D13*
%TO.C,MR13*%
X68790000Y-90935000D03*
X66965000Y-90935000D03*
%TD*%
D14*
%TO.C,J8*%
X95320000Y-73240000D03*
D15*
X95320000Y-75780000D03*
X95320000Y-78320000D03*
X95320000Y-80860000D03*
%TD*%
D11*
%TO.C,MC8*%
X82315000Y-99255000D03*
X88715000Y-99255000D03*
%TD*%
%TO.C,MC7*%
X82575000Y-106335000D03*
X88975000Y-106335000D03*
%TD*%
D14*
%TO.C,J14*%
X57160000Y-105390000D03*
D15*
X54620000Y-105390000D03*
X52080000Y-105390000D03*
X49540000Y-105390000D03*
%TD*%
D13*
%TO.C,MR6*%
X84122500Y-66270000D03*
X82297500Y-66270000D03*
%TD*%
D16*
%TO.C,U5*%
X76305000Y-106495000D03*
X76305000Y-105545000D03*
X76305000Y-104595000D03*
D17*
X78645000Y-104595000D03*
X78645000Y-105545000D03*
X78645000Y-106495000D03*
%TD*%
D13*
%TO.C,MR9*%
X68492500Y-70470000D03*
X66667500Y-70470000D03*
%TD*%
%TO.C,MR2*%
X84147500Y-41935000D03*
X82322500Y-41935000D03*
%TD*%
%TO.C,MR17*%
X68820000Y-95295000D03*
X66995000Y-95295000D03*
%TD*%
D18*
%TO.C,MC6*%
X64270000Y-75800000D03*
X64270000Y-82200000D03*
%TD*%
D19*
%TO.C,ML2*%
X79430000Y-42540000D03*
X71130000Y-42540000D03*
%TD*%
D14*
%TO.C,J7*%
X95310000Y-90790000D03*
D15*
X95310000Y-93330000D03*
%TD*%
D16*
%TO.C,U4*%
X75860000Y-76020000D03*
X75860000Y-75070000D03*
X75860000Y-74120000D03*
D17*
X78200000Y-74120000D03*
X78200000Y-75070000D03*
X78200000Y-76020000D03*
%TD*%
D12*
%TO.C,MD2*%
X69040000Y-54705000D03*
X69040000Y-57680000D03*
%TD*%
D13*
%TO.C,MR15*%
X68780000Y-93125000D03*
X66955000Y-93125000D03*
%TD*%
D19*
%TO.C,ML4*%
X79580000Y-66670000D03*
X71280000Y-66670000D03*
%TD*%
D11*
%TO.C,MC3*%
X81835000Y-50675000D03*
X88235000Y-50675000D03*
%TD*%
D14*
%TO.C,J15*%
X49400000Y-47120000D03*
D15*
X51940000Y-47120000D03*
X54480000Y-47120000D03*
X57020000Y-47120000D03*
%TD*%
D20*
%TO.C,SW3*%
X59300000Y-60080000D03*
X59300000Y-62620000D03*
X59300000Y-65160000D03*
X50400000Y-65160000D03*
X50400000Y-62620000D03*
X50400000Y-60080000D03*
%TD*%
%TO.C,SW2*%
X59400000Y-73250000D03*
X59400000Y-75790000D03*
X59400000Y-78330000D03*
X50500000Y-78330000D03*
X50500000Y-75790000D03*
X50500000Y-73250000D03*
%TD*%
D11*
%TO.C,MC4*%
X81940000Y-81820000D03*
X88340000Y-81820000D03*
%TD*%
%TO.C,MC1*%
X81975000Y-57585000D03*
X88375000Y-57585000D03*
%TD*%
D21*
%TO.C,J11*%
X39310000Y-63990000D03*
D22*
X39310000Y-60490000D03*
%TD*%
D18*
%TO.C,MC2*%
X63950000Y-52080000D03*
X63950000Y-58480000D03*
%TD*%
D16*
%TO.C,U3*%
X75650000Y-81730000D03*
X75650000Y-80780000D03*
X75650000Y-79830000D03*
D17*
X77990000Y-79830000D03*
X77990000Y-80780000D03*
X77990000Y-81730000D03*
%TD*%
D16*
%TO.C,U2*%
X75935000Y-51785000D03*
X75935000Y-50835000D03*
X75935000Y-49885000D03*
D17*
X78275000Y-49885000D03*
X78275000Y-50835000D03*
X78275000Y-51785000D03*
%TD*%
D14*
%TO.C,J9*%
X95450000Y-55870000D03*
D15*
X95450000Y-58410000D03*
X95450000Y-60950000D03*
X95450000Y-63490000D03*
%TD*%
D13*
%TO.C,MR16*%
X84297500Y-93045000D03*
X82472500Y-93045000D03*
%TD*%
D19*
%TO.C,ML6*%
X79890000Y-91380000D03*
X71590000Y-91380000D03*
%TD*%
D12*
%TO.C,MD6*%
X69050000Y-103745000D03*
X69050000Y-106720000D03*
%TD*%
D13*
%TO.C,MR1*%
X68307500Y-44085000D03*
X66482500Y-44085000D03*
%TD*%
D21*
%TO.C,J13*%
X39170000Y-89180000D03*
D22*
X39170000Y-85680000D03*
%TD*%
D13*
%TO.C,MR5*%
X68512500Y-66300000D03*
X66687500Y-66300000D03*
%TD*%
%TO.C,MR4*%
X68307500Y-46125000D03*
X66482500Y-46125000D03*
%TD*%
D16*
%TO.C,U1*%
X75835000Y-57505000D03*
X75835000Y-56555000D03*
X75835000Y-55605000D03*
D17*
X78175000Y-55605000D03*
X78175000Y-56555000D03*
X78175000Y-57505000D03*
%TD*%
D14*
%TO.C,J10*%
X95680000Y-45230000D03*
D15*
X95680000Y-47770000D03*
%TD*%
D16*
%TO.C,U6*%
X76415000Y-100805000D03*
X76415000Y-99855000D03*
X76415000Y-98905000D03*
D17*
X78755000Y-98905000D03*
X78755000Y-99855000D03*
X78755000Y-100805000D03*
%TD*%
D21*
%TO.C,J12*%
X39360000Y-75310000D03*
D22*
X39360000Y-71810000D03*
%TD*%
D12*
%TO.C,MD4*%
X68760000Y-78975000D03*
X68760000Y-81950000D03*
%TD*%
D13*
%TO.C,MR12*%
X84122500Y-68330000D03*
X82297500Y-68330000D03*
%TD*%
D20*
%TO.C,SW1*%
X59550000Y-87110000D03*
X59550000Y-89650000D03*
X59550000Y-92190000D03*
X50650000Y-92190000D03*
X50650000Y-89650000D03*
X50650000Y-87110000D03*
%TD*%
D13*
%TO.C,MR14*%
X84335000Y-90845000D03*
X82510000Y-90845000D03*
%TD*%
%TO.C,MR3*%
X68307500Y-42055000D03*
X66482500Y-42055000D03*
%TD*%
%TO.C,MR11*%
X68512500Y-68370000D03*
X66687500Y-68370000D03*
%TD*%
%TO.C,MR10*%
X84132500Y-70390000D03*
X82307500Y-70390000D03*
%TD*%
D12*
%TO.C,MD5*%
X69060000Y-98330000D03*
X69060000Y-101305000D03*
%TD*%
D18*
%TO.C,MC9*%
X64495000Y-101005000D03*
X64495000Y-107405000D03*
%TD*%
D13*
%TO.C,MR18*%
X84325000Y-95215000D03*
X82500000Y-95215000D03*
%TD*%
%TO.C,MR8*%
X84137500Y-46365000D03*
X82312500Y-46365000D03*
%TD*%
M02*
