%TF.GenerationSoftware,KiCad,Pcbnew,7.0.2*%
%TF.CreationDate,2023-05-19T15:17:25+02:00*%
%TF.ProjectId,78_1x39_1mm Solr tile,37382c31-7833-4392-9c31-6d6d20536f6c,rev?*%
%TF.SameCoordinates,Original*%
%TF.FileFunction,Copper,L1,Top*%
%TF.FilePolarity,Positive*%
%FSLAX46Y46*%
G04 Gerber Fmt 4.6, Leading zero omitted, Abs format (unit mm)*
G04 Created by KiCad (PCBNEW 7.0.2) date 2023-05-19 15:17:25*
%MOMM*%
%LPD*%
G01*
G04 APERTURE LIST*
%TA.AperFunction,SMDPad,CuDef*%
%ADD10R,2.700000X3.600000*%
%TD*%
%TA.AperFunction,SMDPad,CuDef*%
%ADD11R,1.270000X0.760000*%
%TD*%
%TA.AperFunction,ComponentPad*%
%ADD12R,1.700000X1.700000*%
%TD*%
%TA.AperFunction,ComponentPad*%
%ADD13O,1.700000X1.700000*%
%TD*%
%TA.AperFunction,ComponentPad*%
%ADD14R,2.400000X2.400000*%
%TD*%
%TA.AperFunction,ComponentPad*%
%ADD15C,2.400000*%
%TD*%
%TA.AperFunction,ViaPad*%
%ADD16C,0.800000*%
%TD*%
%TA.AperFunction,Conductor*%
%ADD17C,0.500000*%
%TD*%
%TA.AperFunction,Conductor*%
%ADD18C,1.500000*%
%TD*%
%TA.AperFunction,Conductor*%
%ADD19C,1.000000*%
%TD*%
%TA.AperFunction,Conductor*%
%ADD20C,0.150000*%
%TD*%
%TA.AperFunction,Conductor*%
%ADD21C,0.250000*%
%TD*%
%TA.AperFunction,Conductor*%
%ADD22C,2.000000*%
%TD*%
G04 APERTURE END LIST*
D10*
%TO.P,ML1,1,1*%
%TO.N,SOLAR_LINE2*%
X81100000Y-53390000D03*
%TO.P,ML1,2,2*%
%TO.N,Net-(MD1-A)*%
X72800000Y-53390000D03*
%TD*%
%TO.P,ML5,1,1*%
%TO.N,SOLAR_LINE5*%
X80710000Y-101710000D03*
%TO.P,ML5,2,2*%
%TO.N,Net-(MD5-A)*%
X72410000Y-101710000D03*
%TD*%
D11*
%TO.P,J5,1,Pin_1*%
%TO.N,MT_FB_1*%
X84355000Y-93485000D03*
%TO.P,J5,2,Pin_2*%
%TO.N,Net-(J5-Pin_2)*%
X84355000Y-92215000D03*
%TO.P,J5,3,Pin_3*%
%TO.N,MT_FB_1*%
X84355000Y-90945000D03*
%TO.P,J5,4,Pin_4*%
%TO.N,Net-(J5-Pin_4)*%
X76735000Y-90945000D03*
%TO.P,J5,5,Pin_5*%
%TO.N,MT_FB_1*%
X76735000Y-92215000D03*
%TO.P,J5,6,Pin_6*%
%TO.N,Net-(J5-Pin_6)*%
X76735000Y-93485000D03*
%TD*%
%TO.P,J1,1,Pin_1*%
%TO.N,MT_FB_1*%
X83975000Y-44545000D03*
%TO.P,J1,2,Pin_2*%
%TO.N,Net-(J1-Pin_2)*%
X83975000Y-43275000D03*
%TO.P,J1,3,Pin_3*%
%TO.N,MT_FB_1*%
X83975000Y-42005000D03*
%TO.P,J1,4,Pin_4*%
%TO.N,Net-(J1-Pin_4)*%
X76355000Y-42005000D03*
%TO.P,J1,5,Pin_5*%
%TO.N,MT_FB_1*%
X76355000Y-43275000D03*
%TO.P,J1,6,Pin_6*%
%TO.N,Net-(J1-Pin_6)*%
X76355000Y-44545000D03*
%TD*%
%TO.P,J4,1,Pin_1*%
%TO.N,Net-(J4-Pin_1)*%
X84000000Y-68730000D03*
%TO.P,J4,2,Pin_2*%
%TO.N,MT_FB_1*%
X84000000Y-67460000D03*
%TO.P,J4,3,Pin_3*%
%TO.N,Net-(J4-Pin_3)*%
X84000000Y-66190000D03*
%TO.P,J4,4,Pin_4*%
%TO.N,MT_FB_1*%
X76380000Y-66190000D03*
%TO.P,J4,5,Pin_5*%
%TO.N,Net-(J4-Pin_5)*%
X76380000Y-67460000D03*
%TO.P,J4,6,Pin_6*%
%TO.N,MT_FB_1*%
X76380000Y-68730000D03*
%TD*%
D10*
%TO.P,ML3,1,1*%
%TO.N,SOLAR_LINE4*%
X80530000Y-77170000D03*
%TO.P,ML3,2,2*%
%TO.N,Net-(MD3-A)*%
X72230000Y-77170000D03*
%TD*%
D11*
%TO.P,J2,1,Pin_1*%
%TO.N,Net-(J2-Pin_1)*%
X74115000Y-44485000D03*
%TO.P,J2,2,Pin_2*%
%TO.N,MT_FB_1*%
X74115000Y-43215000D03*
%TO.P,J2,3,Pin_3*%
%TO.N,Net-(J2-Pin_3)*%
X74115000Y-41945000D03*
%TO.P,J2,4,Pin_4*%
%TO.N,MT_FB_1*%
X66495000Y-41945000D03*
%TO.P,J2,5,Pin_5*%
%TO.N,Net-(J2-Pin_5)*%
X66495000Y-43215000D03*
%TO.P,J2,6,Pin_6*%
%TO.N,MT_FB_1*%
X66495000Y-44485000D03*
%TD*%
%TO.P,J6,1,Pin_1*%
%TO.N,Net-(J6-Pin_1)*%
X74415000Y-93485000D03*
%TO.P,J6,2,Pin_2*%
%TO.N,MT_FB_1*%
X74415000Y-92215000D03*
%TO.P,J6,3,Pin_3*%
%TO.N,Net-(J6-Pin_3)*%
X74415000Y-90945000D03*
%TO.P,J6,4,Pin_4*%
%TO.N,MT_FB_1*%
X66795000Y-90945000D03*
%TO.P,J6,5,Pin_5*%
%TO.N,Net-(J6-Pin_5)*%
X66795000Y-92215000D03*
%TO.P,J6,6,Pin_6*%
%TO.N,MT_FB_1*%
X66795000Y-93485000D03*
%TD*%
%TO.P,J3,1,Pin_1*%
%TO.N,MT_FB_1*%
X74120000Y-68750000D03*
%TO.P,J3,2,Pin_2*%
%TO.N,Net-(J3-Pin_2)*%
X74120000Y-67480000D03*
%TO.P,J3,3,Pin_3*%
%TO.N,MT_FB_1*%
X74120000Y-66210000D03*
%TO.P,J3,4,Pin_4*%
%TO.N,Net-(J3-Pin_4)*%
X66500000Y-66210000D03*
%TO.P,J3,5,Pin_5*%
%TO.N,MT_FB_1*%
X66500000Y-67480000D03*
%TO.P,J3,6,Pin_6*%
%TO.N,Net-(J3-Pin_6)*%
X66500000Y-68750000D03*
%TD*%
D12*
%TO.P,J8,1,Pin_1*%
%TO.N,SOLAR_LINE4*%
X95320000Y-73240000D03*
D13*
%TO.P,J8,2,Pin_2*%
%TO.N,GND*%
X95320000Y-75780000D03*
%TO.P,J8,3,Pin_3*%
%TO.N,SOLAR_LINE5*%
X95320000Y-78320000D03*
%TO.P,J8,4,Pin_4*%
%TO.N,GND*%
X95320000Y-80860000D03*
%TD*%
D12*
%TO.P,J14,1,Pin_1*%
%TO.N,VOUT_5V0*%
X57160000Y-105390000D03*
D13*
%TO.P,J14,2,Pin_2*%
%TO.N,VOUT_9V0*%
X54620000Y-105390000D03*
%TO.P,J14,3,Pin_3*%
%TO.N,VOUT_12V0*%
X52080000Y-105390000D03*
%TO.P,J14,4,Pin_4*%
%TO.N,GND*%
X49540000Y-105390000D03*
%TD*%
D12*
%TO.P,J7,1,Pin_1*%
%TO.N,SOLAR_LINE6*%
X95310000Y-90790000D03*
D13*
%TO.P,J7,2,Pin_2*%
%TO.N,GND*%
X95310000Y-93330000D03*
%TD*%
D12*
%TO.P,J15,1,Pin_1*%
%TO.N,GND*%
X49400000Y-47120000D03*
D13*
%TO.P,J15,2,Pin_2*%
%TO.N,VOUT_12V0*%
X51940000Y-47120000D03*
%TO.P,J15,3,Pin_3*%
%TO.N,VOUT_9V0*%
X54480000Y-47120000D03*
%TO.P,J15,4,Pin_4*%
%TO.N,VOUT_5V0*%
X57020000Y-47120000D03*
%TD*%
D14*
%TO.P,J11,1,Pin_1*%
%TO.N,VOUT_5V0*%
X39310000Y-63990000D03*
D15*
%TO.P,J11,2,Pin_2*%
%TO.N,GND*%
X39310000Y-60490000D03*
%TD*%
D12*
%TO.P,J9,1,Pin_1*%
%TO.N,SOLAR_LINE2*%
X95450000Y-55870000D03*
D13*
%TO.P,J9,2,Pin_2*%
%TO.N,GND*%
X95450000Y-58410000D03*
%TO.P,J9,3,Pin_3*%
%TO.N,SOLAR_LINE3*%
X95450000Y-60950000D03*
%TO.P,J9,4,Pin_4*%
%TO.N,GND*%
X95450000Y-63490000D03*
%TD*%
D14*
%TO.P,J13,1,Pin_1*%
%TO.N,VOUT_12V0*%
X39170000Y-89180000D03*
D15*
%TO.P,J13,2,Pin_2*%
%TO.N,GND*%
X39170000Y-85680000D03*
%TD*%
D12*
%TO.P,J10,1,Pin_1*%
%TO.N,SOLAR_LINE1*%
X95680000Y-45230000D03*
D13*
%TO.P,J10,2,Pin_2*%
%TO.N,GND*%
X95680000Y-47770000D03*
%TD*%
D14*
%TO.P,J12,1,Pin_1*%
%TO.N,VOUT_9V0*%
X39360000Y-75310000D03*
D15*
%TO.P,J12,2,Pin_2*%
%TO.N,GND*%
X39360000Y-71810000D03*
%TD*%
D16*
%TO.N,GND*%
X88575000Y-91980000D03*
X88595000Y-90670000D03*
X88625000Y-93250000D03*
X76102500Y-102247500D03*
X88460000Y-68090000D03*
X74472500Y-99047500D03*
X88460000Y-69130000D03*
X75755000Y-77475000D03*
X74125000Y-74275000D03*
X88420000Y-66950000D03*
X75740000Y-53250000D03*
X74110000Y-50050000D03*
%TO.N,Net-(MD1-A)*%
X72720000Y-57110000D03*
X72700000Y-58170000D03*
%TO.N,Net-(J1-Pin_2)*%
X85685000Y-43655000D03*
%TO.N,Net-(J2-Pin_5)*%
X64815000Y-43635000D03*
%TO.N,MT_FB_1*%
X77170000Y-53590000D03*
X64875864Y-42124136D03*
X85755000Y-42045000D03*
X65238364Y-91121636D03*
X76905000Y-71835000D03*
X85720000Y-94340000D03*
X77532500Y-102587500D03*
X76890000Y-47610000D03*
X65187500Y-94312500D03*
X85650000Y-45270000D03*
X85750000Y-90970000D03*
X77185000Y-77815000D03*
X77252500Y-96607500D03*
X64825000Y-45315000D03*
%TO.N,Net-(J3-Pin_2)*%
X64890864Y-66349136D03*
%TO.N,Net-(J3-Pin_4)*%
X64840000Y-69540000D03*
%TO.N,Net-(J3-Pin_6)*%
X64830000Y-67860000D03*
%TO.N,Net-(J4-Pin_1)*%
X85770000Y-66270000D03*
%TO.N,Net-(J4-Pin_3)*%
X85665000Y-69495000D03*
%TO.N,Net-(J4-Pin_5)*%
X85370000Y-67890000D03*
%TO.N,Net-(MD3-A)*%
X72715000Y-82395000D03*
X72735000Y-81335000D03*
%TO.N,Net-(J5-Pin_2)*%
X85750000Y-92790000D03*
%TO.N,Net-(J6-Pin_5)*%
X65177500Y-92632500D03*
%TO.N,Net-(MD5-A)*%
X73062500Y-107167500D03*
X73082500Y-106107500D03*
%TO.N,SOLAR_LINE4*%
X81210000Y-79280000D03*
X81750000Y-80270000D03*
%TO.N,SOLAR_LINE5*%
X82640000Y-104650000D03*
X81740000Y-103870000D03*
%TO.N,SOLAR_LINE2*%
X81310000Y-55340000D03*
X81960000Y-56200000D03*
%TO.N,VOUT_5V0*%
X51790000Y-68510000D03*
X51810000Y-95490000D03*
X51770000Y-81560000D03*
X45260000Y-83120000D03*
X51770000Y-70100000D03*
X51770000Y-67080000D03*
X51790000Y-94060000D03*
X45250000Y-70240000D03*
X45320000Y-94200000D03*
X51750000Y-80130000D03*
X51750000Y-83150000D03*
X45310000Y-95680000D03*
X45330000Y-97360000D03*
X45240000Y-81590000D03*
X45260000Y-80160000D03*
X45240000Y-68350000D03*
X45210000Y-66950000D03*
X51860000Y-96720000D03*
%TO.N,VOUT_9V0*%
X48360000Y-75410000D03*
X48330000Y-77220000D03*
X48330000Y-73970000D03*
%TO.N,VOUT_12V0*%
X55180000Y-89240000D03*
X55150000Y-87800000D03*
X55150000Y-91050000D03*
%TD*%
D17*
%TO.N,GND*%
X74870000Y-50050000D02*
X74110000Y-50050000D01*
X75740000Y-50920000D02*
X74870000Y-50050000D01*
D18*
X91880000Y-63490000D02*
X93450000Y-63490000D01*
D17*
X75755000Y-75145000D02*
X74885000Y-74275000D01*
X75755000Y-77475000D02*
X75755000Y-75145000D01*
D18*
X88420000Y-66950000D02*
X91880000Y-63490000D01*
X88595000Y-93220000D02*
X88685000Y-93310000D01*
X88595000Y-90670000D02*
X88595000Y-93220000D01*
X93520000Y-63420000D02*
X95360000Y-63420000D01*
X88460000Y-69130000D02*
X88460000Y-66990000D01*
D17*
X76102500Y-99917500D02*
X75232500Y-99047500D01*
X74885000Y-74275000D02*
X74125000Y-74275000D01*
X76102500Y-102247500D02*
X76102500Y-99917500D01*
X75740000Y-53250000D02*
X75740000Y-50920000D01*
D18*
X88460000Y-66990000D02*
X88420000Y-66950000D01*
D17*
X75232500Y-99047500D02*
X74472500Y-99047500D01*
D18*
X88685000Y-93310000D02*
X95400000Y-93310000D01*
X93450000Y-63490000D02*
X93520000Y-63420000D01*
D19*
%TO.N,Net-(MD1-A)*%
X72700000Y-57790000D02*
X72700000Y-58170000D01*
X72720000Y-57810000D02*
X72700000Y-57790000D01*
X72720000Y-57110000D02*
X72720000Y-57810000D01*
X72720000Y-53770000D02*
X72720000Y-57110000D01*
D20*
%TO.N,Net-(J1-Pin_2)*%
X85685000Y-43655000D02*
X85435000Y-43655000D01*
X85435000Y-43655000D02*
X85030000Y-43250000D01*
X85030000Y-43250000D02*
X84075000Y-43250000D01*
%TO.N,Net-(J2-Pin_5)*%
X65625000Y-43225000D02*
X66485000Y-43225000D01*
X65215000Y-43635000D02*
X65625000Y-43225000D01*
X64815000Y-43635000D02*
X65215000Y-43635000D01*
%TO.N,MT_FB_1*%
X84900000Y-44520000D02*
X84075000Y-44520000D01*
D21*
X74130000Y-44520000D02*
X74105000Y-44495000D01*
X76817500Y-90977500D02*
X74492500Y-90977500D01*
X74492500Y-90977500D02*
X74467500Y-90952500D01*
D20*
X66007500Y-93492500D02*
X66847500Y-93492500D01*
D21*
X74492500Y-93517500D02*
X74467500Y-93492500D01*
X76890000Y-47610000D02*
X76890000Y-47580000D01*
D20*
X65187500Y-94312500D02*
X66007500Y-93492500D01*
D21*
X76890000Y-47580000D02*
X75245000Y-45935000D01*
X76470000Y-68745000D02*
X75260000Y-68745000D01*
D20*
X85650000Y-45270000D02*
X84900000Y-44520000D01*
D21*
X76905000Y-71835000D02*
X76905000Y-71805000D01*
X75245000Y-44520000D02*
X74130000Y-44520000D01*
X77252500Y-96607500D02*
X77532500Y-96887500D01*
X75260000Y-66215000D02*
X75270000Y-66205000D01*
X75260000Y-68745000D02*
X75260000Y-68190000D01*
X75260000Y-68745000D02*
X74145000Y-68745000D01*
D20*
X84437500Y-93517500D02*
X85262500Y-93517500D01*
X65407500Y-90952500D02*
X66847500Y-90952500D01*
X85690000Y-41980000D02*
X85755000Y-42045000D01*
X64825000Y-45315000D02*
X65645000Y-44495000D01*
X64875864Y-42124136D02*
X65045000Y-41955000D01*
D21*
X77252500Y-96577500D02*
X75607500Y-94932500D01*
X75245000Y-43965000D02*
X75245000Y-41990000D01*
X76470000Y-66205000D02*
X74145000Y-66205000D01*
X76890000Y-47610000D02*
X77170000Y-47890000D01*
D20*
X85755000Y-42045000D02*
X85755000Y-41985000D01*
D21*
X76817500Y-92247500D02*
X74492500Y-92247500D01*
D20*
X84437500Y-90977500D02*
X85742500Y-90977500D01*
D21*
X75260000Y-68190000D02*
X75260000Y-66215000D01*
X74145000Y-66205000D02*
X74120000Y-66180000D01*
D20*
X85262500Y-93517500D02*
X85720000Y-93975000D01*
D21*
X75607500Y-93517500D02*
X74492500Y-93517500D01*
X75607500Y-94932500D02*
X75607500Y-92962500D01*
X76905000Y-71835000D02*
X77185000Y-72115000D01*
X76455000Y-43250000D02*
X74130000Y-43250000D01*
D20*
X85742500Y-90977500D02*
X85750000Y-90970000D01*
D21*
X75245000Y-44520000D02*
X75245000Y-43965000D01*
X75607500Y-93517500D02*
X75607500Y-92962500D01*
D20*
X85720000Y-93975000D02*
X85720000Y-94340000D01*
D21*
X74130000Y-41980000D02*
X74105000Y-41955000D01*
X76905000Y-71805000D02*
X75260000Y-70160000D01*
X77185000Y-72115000D02*
X77185000Y-77815000D01*
X74145000Y-67475000D02*
X74120000Y-67450000D01*
X75245000Y-41990000D02*
X75255000Y-41980000D01*
D20*
X84075000Y-41980000D02*
X85690000Y-41980000D01*
X65045000Y-41955000D02*
X66485000Y-41955000D01*
D21*
X74145000Y-68745000D02*
X74120000Y-68720000D01*
X76470000Y-67475000D02*
X74145000Y-67475000D01*
X74130000Y-43250000D02*
X74105000Y-43225000D01*
D20*
X65238364Y-91121636D02*
X65407500Y-90952500D01*
D21*
X77532500Y-96887500D02*
X77532500Y-102587500D01*
X77252500Y-96607500D02*
X77252500Y-96577500D01*
X75245000Y-45935000D02*
X75245000Y-43965000D01*
X77170000Y-47890000D02*
X77170000Y-53590000D01*
X76455000Y-41980000D02*
X74130000Y-41980000D01*
X74492500Y-92247500D02*
X74467500Y-92222500D01*
D20*
X65645000Y-44495000D02*
X66485000Y-44495000D01*
D21*
X75607500Y-90987500D02*
X75617500Y-90977500D01*
X75260000Y-70160000D02*
X75260000Y-68190000D01*
X76817500Y-93517500D02*
X75607500Y-93517500D01*
D20*
X85650000Y-45270000D02*
X85845000Y-45465000D01*
D21*
X75607500Y-92962500D02*
X75607500Y-90987500D01*
X76455000Y-44520000D02*
X75245000Y-44520000D01*
D20*
%TO.N,Net-(J3-Pin_2)*%
X65060000Y-66180000D02*
X66500000Y-66180000D01*
X64890864Y-66349136D02*
X65060000Y-66180000D01*
%TO.N,Net-(J3-Pin_4)*%
X65660000Y-68720000D02*
X66500000Y-68720000D01*
X64840000Y-69540000D02*
X65660000Y-68720000D01*
%TO.N,Net-(J3-Pin_6)*%
X65640000Y-67450000D02*
X66500000Y-67450000D01*
X65230000Y-67860000D02*
X65640000Y-67450000D01*
X64830000Y-67860000D02*
X65230000Y-67860000D01*
%TO.N,Net-(J4-Pin_1)*%
X85705000Y-66205000D02*
X85770000Y-66270000D01*
X85770000Y-66270000D02*
X85770000Y-66210000D01*
X84090000Y-66205000D02*
X85705000Y-66205000D01*
%TO.N,Net-(J4-Pin_3)*%
X85665000Y-69495000D02*
X85860000Y-69690000D01*
X85665000Y-69495000D02*
X84915000Y-68745000D01*
X84915000Y-68745000D02*
X84090000Y-68745000D01*
%TO.N,Net-(J4-Pin_5)*%
X85700000Y-67880000D02*
X85450000Y-67880000D01*
X85450000Y-67880000D02*
X85045000Y-67475000D01*
X85045000Y-67475000D02*
X84090000Y-67475000D01*
D19*
%TO.N,Net-(MD3-A)*%
X72735000Y-77995000D02*
X72735000Y-81335000D01*
X72735000Y-81335000D02*
X72735000Y-82035000D01*
X72715000Y-82015000D02*
X72715000Y-82395000D01*
X72735000Y-82035000D02*
X72715000Y-82015000D01*
D20*
%TO.N,Net-(J5-Pin_2)*%
X85392500Y-92247500D02*
X84437500Y-92247500D01*
X85750000Y-92790000D02*
X85750000Y-92605000D01*
X85750000Y-92605000D02*
X85392500Y-92247500D01*
%TO.N,Net-(J6-Pin_5)*%
X65177500Y-92632500D02*
X65577500Y-92632500D01*
X65577500Y-92632500D02*
X65987500Y-92222500D01*
X65987500Y-92222500D02*
X66847500Y-92222500D01*
D19*
%TO.N,Net-(MD5-A)*%
X73082500Y-106807500D02*
X73062500Y-106787500D01*
X73082500Y-102767500D02*
X73082500Y-106107500D01*
X73082500Y-106107500D02*
X73082500Y-106807500D01*
X73062500Y-106787500D02*
X73062500Y-107167500D01*
D18*
%TO.N,SOLAR_LINE4*%
X81210000Y-79250000D02*
X81210000Y-79280000D01*
X81090000Y-78295000D02*
X89155000Y-78295000D01*
X94240000Y-73210000D02*
X95420000Y-73210000D01*
X81750000Y-79820000D02*
X81750000Y-80270000D01*
X80910000Y-77950000D02*
X80910000Y-78950000D01*
X80910000Y-78950000D02*
X81210000Y-79250000D01*
X89155000Y-78295000D02*
X94240000Y-73210000D01*
X81210000Y-79280000D02*
X81750000Y-79820000D01*
%TO.N,SOLAR_LINE5*%
X95420000Y-78290000D02*
X97180000Y-78290000D01*
X80975000Y-102075000D02*
X80975000Y-103035000D01*
X80975000Y-103035000D02*
X82240000Y-104300000D01*
X97180000Y-78290000D02*
X98520000Y-79630000D01*
X91545000Y-102075000D02*
X80975000Y-102075000D01*
X98520000Y-79630000D02*
X98520000Y-95100000D01*
X98520000Y-95100000D02*
X91545000Y-102075000D01*
%TO.N,SOLAR_LINE2*%
X80925000Y-55085000D02*
X81180000Y-55340000D01*
X80925000Y-53875000D02*
X80925000Y-55085000D01*
X81075000Y-54070000D02*
X93630000Y-54070000D01*
X82040000Y-56200000D02*
X81890000Y-56050000D01*
X81180000Y-55340000D02*
X81310000Y-55340000D01*
X81960000Y-56200000D02*
X82040000Y-56200000D01*
X93630000Y-54070000D02*
X95360000Y-55800000D01*
D22*
%TO.N,VOUT_5V0*%
X45500000Y-95490000D02*
X45310000Y-95680000D01*
X45240000Y-83100000D02*
X45260000Y-83120000D01*
X51810000Y-95490000D02*
X51810000Y-94080000D01*
X51810000Y-95490000D02*
X51810000Y-96670000D01*
X45240000Y-81590000D02*
X45240000Y-83100000D01*
X51770000Y-80150000D02*
X51750000Y-80130000D01*
X45240000Y-68350000D02*
X45240000Y-66980000D01*
X51770000Y-81560000D02*
X51770000Y-83130000D01*
X45240000Y-70230000D02*
X45250000Y-70240000D01*
X51770000Y-83130000D02*
X51750000Y-83150000D01*
X45310000Y-94210000D02*
X45320000Y-94200000D01*
X51790000Y-70080000D02*
X51770000Y-70100000D01*
X45240000Y-80180000D02*
X45260000Y-80160000D01*
X45270000Y-81560000D02*
X45240000Y-81590000D01*
X51790000Y-68510000D02*
X45400000Y-68510000D01*
X51810000Y-94080000D02*
X51790000Y-94060000D01*
X45310000Y-95680000D02*
X45310000Y-94210000D01*
X45400000Y-68510000D02*
X45240000Y-68350000D01*
X45310000Y-95680000D02*
X45310000Y-97340000D01*
X51770000Y-81560000D02*
X51770000Y-80150000D01*
X51790000Y-68510000D02*
X51790000Y-67100000D01*
X51770000Y-81560000D02*
X45270000Y-81560000D01*
X51810000Y-95490000D02*
X45500000Y-95490000D01*
X45310000Y-97340000D02*
X45330000Y-97360000D01*
X45240000Y-81590000D02*
X45240000Y-80180000D01*
X45240000Y-66980000D02*
X45210000Y-66950000D01*
X51810000Y-96670000D02*
X51860000Y-96720000D01*
X51790000Y-67100000D02*
X51770000Y-67080000D01*
X45240000Y-68350000D02*
X45240000Y-70230000D01*
X51790000Y-68510000D02*
X51790000Y-70080000D01*
%TO.N,VOUT_9V0*%
X48330000Y-73970000D02*
X48330000Y-77220000D01*
X39170000Y-75410000D02*
X39150000Y-75390000D01*
X48360000Y-75410000D02*
X39170000Y-75410000D01*
%TO.N,VOUT_12V0*%
X55180000Y-89240000D02*
X39340000Y-89240000D01*
X55150000Y-87800000D02*
X55150000Y-91050000D01*
X39340000Y-89240000D02*
X39300000Y-89280000D01*
%TD*%
M02*
