M48
; DRILL file {KiCad 7.0.2} date Fri May 19 15:17:27 2023
; FORMAT={-:-/ absolute / inch / decimal}
; #@! TF.CreationDate,2023-05-19T15:17:27+02:00
; #@! TF.GenerationSoftware,Kicad,Pcbnew,7.0.2
; #@! TF.FileFunction,Plated,1,2,PTH
FMAT,2
INCH
; #@! TA.AperFunction,Plated,PTH,ViaDrill
T1C0.0157
; #@! TA.AperFunction,Plated,PTH,ComponentDrill
T2C0.0394
; #@! TA.AperFunction,Plated,PTH,ComponentDrill
T3C0.0472
%
G90
G05
T1
X1.7799Y-2.6358
X1.7811Y-2.6909
X1.7811Y-3.2122
X1.7815Y-2.7654
X1.7819Y-3.1559
X1.7819Y-3.2724
X1.7839Y-3.7669
X1.7843Y-3.7087
X1.7846Y-3.8331
X1.9028Y-2.9122
X1.9028Y-3.0402
X1.9039Y-2.9689
X2.0374Y-3.1547
X2.0374Y-3.2736
X2.0382Y-2.6409
X2.0382Y-2.7598
X2.0382Y-3.211
X2.039Y-2.6972
X2.039Y-3.7031
X2.0398Y-3.7594
X2.0417Y-3.8079
X2.1713Y-3.4567
X2.1713Y-3.5846
X2.1724Y-3.5134
X2.5518Y-1.7179
X2.5522Y-1.7841
X2.5524Y-2.6717
X2.5528Y-2.7378
X2.5542Y-1.6584
X2.5548Y-2.6122
X2.566Y-3.6469
X2.5664Y-3.7131
X2.5684Y-3.5875
X2.8622Y-2.2902
X2.8628Y-3.2439
X2.863Y-2.2484
X2.8636Y-3.2022
X2.8765Y-4.2192
X2.8773Y-4.1775
X2.9177Y-1.9705
X2.9183Y-2.9242
X2.932Y-3.8995
X2.9819Y-2.0965
X2.9825Y-3.0502
X2.9962Y-4.0255
X3.0272Y-1.8744
X3.0278Y-2.8281
X3.0382Y-2.1098
X3.0388Y-3.0636
X3.0414Y-3.8034
X3.0525Y-4.0389
X3.1972Y-3.1213
X3.2012Y-2.1787
X3.2181Y-4.0894
X3.2185Y-3.1602
X3.2268Y-2.2126
X3.2535Y-4.1201
X3.361Y-2.6728
X3.372Y-1.7823
X3.3726Y-2.736
X3.3734Y-1.7187
X3.3748Y-3.7142
X3.376Y-3.5815
X3.376Y-3.6531
X3.3762Y-1.6553
X3.3768Y-2.6091
X3.4811Y-2.6358
X3.4827Y-2.6807
X3.4827Y-2.7217
X3.4872Y-3.6213
X3.488Y-3.5697
X3.4892Y-3.6713
T2
X1.9449Y-1.8551
X1.9504Y-4.1492
X2.0449Y-1.8551
X2.0504Y-4.1492
X2.1449Y-1.8551
X2.1504Y-4.1492
X2.2449Y-1.8551
X2.2504Y-4.1492
X3.7524Y-3.5744
X3.7524Y-3.6744
X3.7528Y-2.8835
X3.7528Y-2.9835
X3.7528Y-3.0835
X3.7528Y-3.1835
X3.7579Y-2.1996
X3.7579Y-2.2996
X3.7579Y-2.3996
X3.7579Y-2.4996
X3.7669Y-1.7807
X3.7669Y-1.8807
T3
X1.5421Y-3.3732
X1.5421Y-3.511
X1.5476Y-2.3815
X1.5476Y-2.5193
X1.5496Y-2.8272
X1.5496Y-2.965
T0
M30
