%TF.GenerationSoftware,KiCad,Pcbnew,7.0.2*%
%TF.CreationDate,2023-05-19T15:17:26+02:00*%
%TF.ProjectId,78_1x39_1mm Solr tile,37382c31-7833-4392-9c31-6d6d20536f6c,rev?*%
%TF.SameCoordinates,Original*%
%TF.FileFunction,Drillmap*%
%TF.FilePolarity,Positive*%
%FSLAX45Y45*%
G04 Gerber Fmt 4.5, Leading zero omitted, Abs format (unit mm)*
G04 Created by KiCad (PCBNEW 7.0.2) date 2023-05-19 15:17:26*
%MOMM*%
%LPD*%
G01*
G04 APERTURE LIST*
%ADD10C,0.100000*%
%ADD11C,0.200000*%
%ADD12C,0.350000*%
G04 APERTURE END LIST*
D10*
X3317000Y-3601000D02*
X10717500Y-3599000D01*
X3317000Y-11621000D02*
X10717500Y-11616000D01*
X3317000Y-3601000D02*
X3317000Y-11621000D01*
X10717500Y-11616000D02*
X10717500Y-3599000D01*
D11*
D12*
X3544000Y-3819000D02*
X3894000Y-4169000D01*
X3894000Y-3819000D02*
X3544000Y-4169000D01*
X3569000Y-11051000D02*
X3919000Y-11401000D01*
X3919000Y-11051000D02*
X3569000Y-11401000D01*
X10133000Y-11094000D02*
X10483000Y-11444000D01*
X10483000Y-11094000D02*
X10133000Y-11444000D01*
X10137000Y-3809000D02*
X10487000Y-4159000D01*
X10487000Y-3809000D02*
X10137000Y-4159000D01*
D11*
X3559619Y-11938524D02*
X3559619Y-11738524D01*
X3559619Y-11738524D02*
X3607238Y-11738524D01*
X3607238Y-11738524D02*
X3635809Y-11748048D01*
X3635809Y-11748048D02*
X3654857Y-11767095D01*
X3654857Y-11767095D02*
X3664381Y-11786143D01*
X3664381Y-11786143D02*
X3673905Y-11824238D01*
X3673905Y-11824238D02*
X3673905Y-11852809D01*
X3673905Y-11852809D02*
X3664381Y-11890905D01*
X3664381Y-11890905D02*
X3654857Y-11909952D01*
X3654857Y-11909952D02*
X3635809Y-11929000D01*
X3635809Y-11929000D02*
X3607238Y-11938524D01*
X3607238Y-11938524D02*
X3559619Y-11938524D01*
X3759619Y-11938524D02*
X3759619Y-11805190D01*
X3759619Y-11843286D02*
X3769143Y-11824238D01*
X3769143Y-11824238D02*
X3778667Y-11814714D01*
X3778667Y-11814714D02*
X3797714Y-11805190D01*
X3797714Y-11805190D02*
X3816762Y-11805190D01*
X3883428Y-11938524D02*
X3883428Y-11805190D01*
X3883428Y-11738524D02*
X3873905Y-11748048D01*
X3873905Y-11748048D02*
X3883428Y-11757571D01*
X3883428Y-11757571D02*
X3892952Y-11748048D01*
X3892952Y-11748048D02*
X3883428Y-11738524D01*
X3883428Y-11738524D02*
X3883428Y-11757571D01*
X4007238Y-11938524D02*
X3988190Y-11929000D01*
X3988190Y-11929000D02*
X3978667Y-11909952D01*
X3978667Y-11909952D02*
X3978667Y-11738524D01*
X4112000Y-11938524D02*
X4092952Y-11929000D01*
X4092952Y-11929000D02*
X4083428Y-11909952D01*
X4083428Y-11909952D02*
X4083428Y-11738524D01*
X4340571Y-11938524D02*
X4340571Y-11738524D01*
X4340571Y-11738524D02*
X4407238Y-11881381D01*
X4407238Y-11881381D02*
X4473905Y-11738524D01*
X4473905Y-11738524D02*
X4473905Y-11938524D01*
X4654857Y-11938524D02*
X4654857Y-11833762D01*
X4654857Y-11833762D02*
X4645333Y-11814714D01*
X4645333Y-11814714D02*
X4626286Y-11805190D01*
X4626286Y-11805190D02*
X4588190Y-11805190D01*
X4588190Y-11805190D02*
X4569143Y-11814714D01*
X4654857Y-11929000D02*
X4635810Y-11938524D01*
X4635810Y-11938524D02*
X4588190Y-11938524D01*
X4588190Y-11938524D02*
X4569143Y-11929000D01*
X4569143Y-11929000D02*
X4559619Y-11909952D01*
X4559619Y-11909952D02*
X4559619Y-11890905D01*
X4559619Y-11890905D02*
X4569143Y-11871857D01*
X4569143Y-11871857D02*
X4588190Y-11862333D01*
X4588190Y-11862333D02*
X4635810Y-11862333D01*
X4635810Y-11862333D02*
X4654857Y-11852809D01*
X4750095Y-11805190D02*
X4750095Y-12005190D01*
X4750095Y-11814714D02*
X4769143Y-11805190D01*
X4769143Y-11805190D02*
X4807238Y-11805190D01*
X4807238Y-11805190D02*
X4826286Y-11814714D01*
X4826286Y-11814714D02*
X4835810Y-11824238D01*
X4835810Y-11824238D02*
X4845333Y-11843286D01*
X4845333Y-11843286D02*
X4845333Y-11900428D01*
X4845333Y-11900428D02*
X4835810Y-11919476D01*
X4835810Y-11919476D02*
X4826286Y-11929000D01*
X4826286Y-11929000D02*
X4807238Y-11938524D01*
X4807238Y-11938524D02*
X4769143Y-11938524D01*
X4769143Y-11938524D02*
X4750095Y-11929000D01*
X4931048Y-11919476D02*
X4940571Y-11929000D01*
X4940571Y-11929000D02*
X4931048Y-11938524D01*
X4931048Y-11938524D02*
X4921524Y-11929000D01*
X4921524Y-11929000D02*
X4931048Y-11919476D01*
X4931048Y-11919476D02*
X4931048Y-11938524D01*
X4931048Y-11814714D02*
X4940571Y-11824238D01*
X4940571Y-11824238D02*
X4931048Y-11833762D01*
X4931048Y-11833762D02*
X4921524Y-11824238D01*
X4921524Y-11824238D02*
X4931048Y-11814714D01*
X4931048Y-11814714D02*
X4931048Y-11833762D01*
X3112000Y-12166000D02*
X3312000Y-12366000D01*
X3312000Y-12166000D02*
X3112000Y-12366000D01*
X3540571Y-12158524D02*
X3664381Y-12158524D01*
X3664381Y-12158524D02*
X3597714Y-12234714D01*
X3597714Y-12234714D02*
X3626286Y-12234714D01*
X3626286Y-12234714D02*
X3645333Y-12244238D01*
X3645333Y-12244238D02*
X3654857Y-12253762D01*
X3654857Y-12253762D02*
X3664381Y-12272809D01*
X3664381Y-12272809D02*
X3664381Y-12320428D01*
X3664381Y-12320428D02*
X3654857Y-12339476D01*
X3654857Y-12339476D02*
X3645333Y-12349000D01*
X3645333Y-12349000D02*
X3626286Y-12358524D01*
X3626286Y-12358524D02*
X3569143Y-12358524D01*
X3569143Y-12358524D02*
X3550095Y-12349000D01*
X3550095Y-12349000D02*
X3540571Y-12339476D01*
X3750095Y-12339476D02*
X3759619Y-12349000D01*
X3759619Y-12349000D02*
X3750095Y-12358524D01*
X3750095Y-12358524D02*
X3740571Y-12349000D01*
X3740571Y-12349000D02*
X3750095Y-12339476D01*
X3750095Y-12339476D02*
X3750095Y-12358524D01*
X3940571Y-12158524D02*
X3845333Y-12158524D01*
X3845333Y-12158524D02*
X3835809Y-12253762D01*
X3835809Y-12253762D02*
X3845333Y-12244238D01*
X3845333Y-12244238D02*
X3864381Y-12234714D01*
X3864381Y-12234714D02*
X3912000Y-12234714D01*
X3912000Y-12234714D02*
X3931048Y-12244238D01*
X3931048Y-12244238D02*
X3940571Y-12253762D01*
X3940571Y-12253762D02*
X3950095Y-12272809D01*
X3950095Y-12272809D02*
X3950095Y-12320428D01*
X3950095Y-12320428D02*
X3940571Y-12339476D01*
X3940571Y-12339476D02*
X3931048Y-12349000D01*
X3931048Y-12349000D02*
X3912000Y-12358524D01*
X3912000Y-12358524D02*
X3864381Y-12358524D01*
X3864381Y-12358524D02*
X3845333Y-12349000D01*
X3845333Y-12349000D02*
X3835809Y-12339476D01*
X4073905Y-12158524D02*
X4092952Y-12158524D01*
X4092952Y-12158524D02*
X4112000Y-12168048D01*
X4112000Y-12168048D02*
X4121524Y-12177571D01*
X4121524Y-12177571D02*
X4131048Y-12196619D01*
X4131048Y-12196619D02*
X4140571Y-12234714D01*
X4140571Y-12234714D02*
X4140571Y-12282333D01*
X4140571Y-12282333D02*
X4131048Y-12320428D01*
X4131048Y-12320428D02*
X4121524Y-12339476D01*
X4121524Y-12339476D02*
X4112000Y-12349000D01*
X4112000Y-12349000D02*
X4092952Y-12358524D01*
X4092952Y-12358524D02*
X4073905Y-12358524D01*
X4073905Y-12358524D02*
X4054857Y-12349000D01*
X4054857Y-12349000D02*
X4045333Y-12339476D01*
X4045333Y-12339476D02*
X4035809Y-12320428D01*
X4035809Y-12320428D02*
X4026286Y-12282333D01*
X4026286Y-12282333D02*
X4026286Y-12234714D01*
X4026286Y-12234714D02*
X4035809Y-12196619D01*
X4035809Y-12196619D02*
X4045333Y-12177571D01*
X4045333Y-12177571D02*
X4054857Y-12168048D01*
X4054857Y-12168048D02*
X4073905Y-12158524D01*
X4264381Y-12158524D02*
X4283429Y-12158524D01*
X4283429Y-12158524D02*
X4302476Y-12168048D01*
X4302476Y-12168048D02*
X4312000Y-12177571D01*
X4312000Y-12177571D02*
X4321524Y-12196619D01*
X4321524Y-12196619D02*
X4331048Y-12234714D01*
X4331048Y-12234714D02*
X4331048Y-12282333D01*
X4331048Y-12282333D02*
X4321524Y-12320428D01*
X4321524Y-12320428D02*
X4312000Y-12339476D01*
X4312000Y-12339476D02*
X4302476Y-12349000D01*
X4302476Y-12349000D02*
X4283429Y-12358524D01*
X4283429Y-12358524D02*
X4264381Y-12358524D01*
X4264381Y-12358524D02*
X4245333Y-12349000D01*
X4245333Y-12349000D02*
X4235810Y-12339476D01*
X4235810Y-12339476D02*
X4226286Y-12320428D01*
X4226286Y-12320428D02*
X4216762Y-12282333D01*
X4216762Y-12282333D02*
X4216762Y-12234714D01*
X4216762Y-12234714D02*
X4226286Y-12196619D01*
X4226286Y-12196619D02*
X4235810Y-12177571D01*
X4235810Y-12177571D02*
X4245333Y-12168048D01*
X4245333Y-12168048D02*
X4264381Y-12158524D01*
X4416762Y-12358524D02*
X4416762Y-12225190D01*
X4416762Y-12244238D02*
X4426286Y-12234714D01*
X4426286Y-12234714D02*
X4445333Y-12225190D01*
X4445333Y-12225190D02*
X4473905Y-12225190D01*
X4473905Y-12225190D02*
X4492952Y-12234714D01*
X4492952Y-12234714D02*
X4502476Y-12253762D01*
X4502476Y-12253762D02*
X4502476Y-12358524D01*
X4502476Y-12253762D02*
X4512000Y-12234714D01*
X4512000Y-12234714D02*
X4531048Y-12225190D01*
X4531048Y-12225190D02*
X4559619Y-12225190D01*
X4559619Y-12225190D02*
X4578667Y-12234714D01*
X4578667Y-12234714D02*
X4588191Y-12253762D01*
X4588191Y-12253762D02*
X4588191Y-12358524D01*
X4683429Y-12358524D02*
X4683429Y-12225190D01*
X4683429Y-12244238D02*
X4692952Y-12234714D01*
X4692952Y-12234714D02*
X4712000Y-12225190D01*
X4712000Y-12225190D02*
X4740572Y-12225190D01*
X4740572Y-12225190D02*
X4759619Y-12234714D01*
X4759619Y-12234714D02*
X4769143Y-12253762D01*
X4769143Y-12253762D02*
X4769143Y-12358524D01*
X4769143Y-12253762D02*
X4778667Y-12234714D01*
X4778667Y-12234714D02*
X4797714Y-12225190D01*
X4797714Y-12225190D02*
X4826286Y-12225190D01*
X4826286Y-12225190D02*
X4845333Y-12234714D01*
X4845333Y-12234714D02*
X4854857Y-12253762D01*
X4854857Y-12253762D02*
X4854857Y-12358524D01*
X5245333Y-12149000D02*
X5073905Y-12406143D01*
X5502476Y-12158524D02*
X5521524Y-12158524D01*
X5521524Y-12158524D02*
X5540572Y-12168048D01*
X5540572Y-12168048D02*
X5550095Y-12177571D01*
X5550095Y-12177571D02*
X5559619Y-12196619D01*
X5559619Y-12196619D02*
X5569143Y-12234714D01*
X5569143Y-12234714D02*
X5569143Y-12282333D01*
X5569143Y-12282333D02*
X5559619Y-12320428D01*
X5559619Y-12320428D02*
X5550095Y-12339476D01*
X5550095Y-12339476D02*
X5540572Y-12349000D01*
X5540572Y-12349000D02*
X5521524Y-12358524D01*
X5521524Y-12358524D02*
X5502476Y-12358524D01*
X5502476Y-12358524D02*
X5483429Y-12349000D01*
X5483429Y-12349000D02*
X5473905Y-12339476D01*
X5473905Y-12339476D02*
X5464381Y-12320428D01*
X5464381Y-12320428D02*
X5454857Y-12282333D01*
X5454857Y-12282333D02*
X5454857Y-12234714D01*
X5454857Y-12234714D02*
X5464381Y-12196619D01*
X5464381Y-12196619D02*
X5473905Y-12177571D01*
X5473905Y-12177571D02*
X5483429Y-12168048D01*
X5483429Y-12168048D02*
X5502476Y-12158524D01*
X5654857Y-12339476D02*
X5664381Y-12349000D01*
X5664381Y-12349000D02*
X5654857Y-12358524D01*
X5654857Y-12358524D02*
X5645333Y-12349000D01*
X5645333Y-12349000D02*
X5654857Y-12339476D01*
X5654857Y-12339476D02*
X5654857Y-12358524D01*
X5854857Y-12358524D02*
X5740572Y-12358524D01*
X5797714Y-12358524D02*
X5797714Y-12158524D01*
X5797714Y-12158524D02*
X5778667Y-12187095D01*
X5778667Y-12187095D02*
X5759619Y-12206143D01*
X5759619Y-12206143D02*
X5740572Y-12215667D01*
X5921524Y-12158524D02*
X6045333Y-12158524D01*
X6045333Y-12158524D02*
X5978667Y-12234714D01*
X5978667Y-12234714D02*
X6007238Y-12234714D01*
X6007238Y-12234714D02*
X6026286Y-12244238D01*
X6026286Y-12244238D02*
X6035810Y-12253762D01*
X6035810Y-12253762D02*
X6045333Y-12272809D01*
X6045333Y-12272809D02*
X6045333Y-12320428D01*
X6045333Y-12320428D02*
X6035810Y-12339476D01*
X6035810Y-12339476D02*
X6026286Y-12349000D01*
X6026286Y-12349000D02*
X6007238Y-12358524D01*
X6007238Y-12358524D02*
X5950095Y-12358524D01*
X5950095Y-12358524D02*
X5931048Y-12349000D01*
X5931048Y-12349000D02*
X5921524Y-12339476D01*
X6112000Y-12158524D02*
X6245333Y-12158524D01*
X6245333Y-12158524D02*
X6159619Y-12358524D01*
X6350095Y-12244238D02*
X6331048Y-12234714D01*
X6331048Y-12234714D02*
X6321524Y-12225190D01*
X6321524Y-12225190D02*
X6312000Y-12206143D01*
X6312000Y-12206143D02*
X6312000Y-12196619D01*
X6312000Y-12196619D02*
X6321524Y-12177571D01*
X6321524Y-12177571D02*
X6331048Y-12168048D01*
X6331048Y-12168048D02*
X6350095Y-12158524D01*
X6350095Y-12158524D02*
X6388191Y-12158524D01*
X6388191Y-12158524D02*
X6407238Y-12168048D01*
X6407238Y-12168048D02*
X6416762Y-12177571D01*
X6416762Y-12177571D02*
X6426286Y-12196619D01*
X6426286Y-12196619D02*
X6426286Y-12206143D01*
X6426286Y-12206143D02*
X6416762Y-12225190D01*
X6416762Y-12225190D02*
X6407238Y-12234714D01*
X6407238Y-12234714D02*
X6388191Y-12244238D01*
X6388191Y-12244238D02*
X6350095Y-12244238D01*
X6350095Y-12244238D02*
X6331048Y-12253762D01*
X6331048Y-12253762D02*
X6321524Y-12263286D01*
X6321524Y-12263286D02*
X6312000Y-12282333D01*
X6312000Y-12282333D02*
X6312000Y-12320428D01*
X6312000Y-12320428D02*
X6321524Y-12339476D01*
X6321524Y-12339476D02*
X6331048Y-12349000D01*
X6331048Y-12349000D02*
X6350095Y-12358524D01*
X6350095Y-12358524D02*
X6388191Y-12358524D01*
X6388191Y-12358524D02*
X6407238Y-12349000D01*
X6407238Y-12349000D02*
X6416762Y-12339476D01*
X6416762Y-12339476D02*
X6426286Y-12320428D01*
X6426286Y-12320428D02*
X6426286Y-12282333D01*
X6426286Y-12282333D02*
X6416762Y-12263286D01*
X6416762Y-12263286D02*
X6407238Y-12253762D01*
X6407238Y-12253762D02*
X6388191Y-12244238D01*
X6502476Y-12158524D02*
X6502476Y-12196619D01*
X6578667Y-12158524D02*
X6578667Y-12196619D01*
X6873905Y-12434714D02*
X6864381Y-12425190D01*
X6864381Y-12425190D02*
X6845334Y-12396619D01*
X6845334Y-12396619D02*
X6835810Y-12377571D01*
X6835810Y-12377571D02*
X6826286Y-12349000D01*
X6826286Y-12349000D02*
X6816762Y-12301381D01*
X6816762Y-12301381D02*
X6816762Y-12263286D01*
X6816762Y-12263286D02*
X6826286Y-12215667D01*
X6826286Y-12215667D02*
X6835810Y-12187095D01*
X6835810Y-12187095D02*
X6845334Y-12168048D01*
X6845334Y-12168048D02*
X6864381Y-12139476D01*
X6864381Y-12139476D02*
X6873905Y-12129952D01*
X7035810Y-12225190D02*
X7035810Y-12358524D01*
X6988191Y-12149000D02*
X6940572Y-12291857D01*
X6940572Y-12291857D02*
X7064381Y-12291857D01*
X7292953Y-12358524D02*
X7292953Y-12158524D01*
X7378667Y-12358524D02*
X7378667Y-12253762D01*
X7378667Y-12253762D02*
X7369143Y-12234714D01*
X7369143Y-12234714D02*
X7350096Y-12225190D01*
X7350096Y-12225190D02*
X7321524Y-12225190D01*
X7321524Y-12225190D02*
X7302476Y-12234714D01*
X7302476Y-12234714D02*
X7292953Y-12244238D01*
X7502476Y-12358524D02*
X7483429Y-12349000D01*
X7483429Y-12349000D02*
X7473905Y-12339476D01*
X7473905Y-12339476D02*
X7464381Y-12320428D01*
X7464381Y-12320428D02*
X7464381Y-12263286D01*
X7464381Y-12263286D02*
X7473905Y-12244238D01*
X7473905Y-12244238D02*
X7483429Y-12234714D01*
X7483429Y-12234714D02*
X7502476Y-12225190D01*
X7502476Y-12225190D02*
X7531048Y-12225190D01*
X7531048Y-12225190D02*
X7550096Y-12234714D01*
X7550096Y-12234714D02*
X7559619Y-12244238D01*
X7559619Y-12244238D02*
X7569143Y-12263286D01*
X7569143Y-12263286D02*
X7569143Y-12320428D01*
X7569143Y-12320428D02*
X7559619Y-12339476D01*
X7559619Y-12339476D02*
X7550096Y-12349000D01*
X7550096Y-12349000D02*
X7531048Y-12358524D01*
X7531048Y-12358524D02*
X7502476Y-12358524D01*
X7683429Y-12358524D02*
X7664381Y-12349000D01*
X7664381Y-12349000D02*
X7654857Y-12329952D01*
X7654857Y-12329952D02*
X7654857Y-12158524D01*
X7835810Y-12349000D02*
X7816762Y-12358524D01*
X7816762Y-12358524D02*
X7778667Y-12358524D01*
X7778667Y-12358524D02*
X7759619Y-12349000D01*
X7759619Y-12349000D02*
X7750096Y-12329952D01*
X7750096Y-12329952D02*
X7750096Y-12253762D01*
X7750096Y-12253762D02*
X7759619Y-12234714D01*
X7759619Y-12234714D02*
X7778667Y-12225190D01*
X7778667Y-12225190D02*
X7816762Y-12225190D01*
X7816762Y-12225190D02*
X7835810Y-12234714D01*
X7835810Y-12234714D02*
X7845334Y-12253762D01*
X7845334Y-12253762D02*
X7845334Y-12272809D01*
X7845334Y-12272809D02*
X7750096Y-12291857D01*
X7921524Y-12349000D02*
X7940572Y-12358524D01*
X7940572Y-12358524D02*
X7978667Y-12358524D01*
X7978667Y-12358524D02*
X7997715Y-12349000D01*
X7997715Y-12349000D02*
X8007238Y-12329952D01*
X8007238Y-12329952D02*
X8007238Y-12320428D01*
X8007238Y-12320428D02*
X7997715Y-12301381D01*
X7997715Y-12301381D02*
X7978667Y-12291857D01*
X7978667Y-12291857D02*
X7950096Y-12291857D01*
X7950096Y-12291857D02*
X7931048Y-12282333D01*
X7931048Y-12282333D02*
X7921524Y-12263286D01*
X7921524Y-12263286D02*
X7921524Y-12253762D01*
X7921524Y-12253762D02*
X7931048Y-12234714D01*
X7931048Y-12234714D02*
X7950096Y-12225190D01*
X7950096Y-12225190D02*
X7978667Y-12225190D01*
X7978667Y-12225190D02*
X7997715Y-12234714D01*
X8073905Y-12434714D02*
X8083429Y-12425190D01*
X8083429Y-12425190D02*
X8102477Y-12396619D01*
X8102477Y-12396619D02*
X8112000Y-12377571D01*
X8112000Y-12377571D02*
X8121524Y-12349000D01*
X8121524Y-12349000D02*
X8131048Y-12301381D01*
X8131048Y-12301381D02*
X8131048Y-12263286D01*
X8131048Y-12263286D02*
X8121524Y-12215667D01*
X8121524Y-12215667D02*
X8112000Y-12187095D01*
X8112000Y-12187095D02*
X8102477Y-12168048D01*
X8102477Y-12168048D02*
X8083429Y-12139476D01*
X8083429Y-12139476D02*
X8073905Y-12129952D01*
X8435810Y-12434714D02*
X8426286Y-12425190D01*
X8426286Y-12425190D02*
X8407239Y-12396619D01*
X8407239Y-12396619D02*
X8397715Y-12377571D01*
X8397715Y-12377571D02*
X8388191Y-12349000D01*
X8388191Y-12349000D02*
X8378667Y-12301381D01*
X8378667Y-12301381D02*
X8378667Y-12263286D01*
X8378667Y-12263286D02*
X8388191Y-12215667D01*
X8388191Y-12215667D02*
X8397715Y-12187095D01*
X8397715Y-12187095D02*
X8407239Y-12168048D01*
X8407239Y-12168048D02*
X8426286Y-12139476D01*
X8426286Y-12139476D02*
X8435810Y-12129952D01*
X8512000Y-12225190D02*
X8512000Y-12358524D01*
X8512000Y-12244238D02*
X8521524Y-12234714D01*
X8521524Y-12234714D02*
X8540572Y-12225190D01*
X8540572Y-12225190D02*
X8569143Y-12225190D01*
X8569143Y-12225190D02*
X8588191Y-12234714D01*
X8588191Y-12234714D02*
X8597715Y-12253762D01*
X8597715Y-12253762D02*
X8597715Y-12358524D01*
X8721524Y-12358524D02*
X8702477Y-12349000D01*
X8702477Y-12349000D02*
X8692953Y-12339476D01*
X8692953Y-12339476D02*
X8683429Y-12320428D01*
X8683429Y-12320428D02*
X8683429Y-12263286D01*
X8683429Y-12263286D02*
X8692953Y-12244238D01*
X8692953Y-12244238D02*
X8702477Y-12234714D01*
X8702477Y-12234714D02*
X8721524Y-12225190D01*
X8721524Y-12225190D02*
X8750096Y-12225190D01*
X8750096Y-12225190D02*
X8769143Y-12234714D01*
X8769143Y-12234714D02*
X8778667Y-12244238D01*
X8778667Y-12244238D02*
X8788191Y-12263286D01*
X8788191Y-12263286D02*
X8788191Y-12320428D01*
X8788191Y-12320428D02*
X8778667Y-12339476D01*
X8778667Y-12339476D02*
X8769143Y-12349000D01*
X8769143Y-12349000D02*
X8750096Y-12358524D01*
X8750096Y-12358524D02*
X8721524Y-12358524D01*
X8845334Y-12225190D02*
X8921524Y-12225190D01*
X8873905Y-12158524D02*
X8873905Y-12329952D01*
X8873905Y-12329952D02*
X8883429Y-12349000D01*
X8883429Y-12349000D02*
X8902477Y-12358524D01*
X8902477Y-12358524D02*
X8921524Y-12358524D01*
X9140572Y-12225190D02*
X9140572Y-12425190D01*
X9140572Y-12234714D02*
X9159620Y-12225190D01*
X9159620Y-12225190D02*
X9197715Y-12225190D01*
X9197715Y-12225190D02*
X9216762Y-12234714D01*
X9216762Y-12234714D02*
X9226286Y-12244238D01*
X9226286Y-12244238D02*
X9235810Y-12263286D01*
X9235810Y-12263286D02*
X9235810Y-12320428D01*
X9235810Y-12320428D02*
X9226286Y-12339476D01*
X9226286Y-12339476D02*
X9216762Y-12349000D01*
X9216762Y-12349000D02*
X9197715Y-12358524D01*
X9197715Y-12358524D02*
X9159620Y-12358524D01*
X9159620Y-12358524D02*
X9140572Y-12349000D01*
X9350096Y-12358524D02*
X9331048Y-12349000D01*
X9331048Y-12349000D02*
X9321524Y-12329952D01*
X9321524Y-12329952D02*
X9321524Y-12158524D01*
X9512001Y-12358524D02*
X9512001Y-12253762D01*
X9512001Y-12253762D02*
X9502477Y-12234714D01*
X9502477Y-12234714D02*
X9483429Y-12225190D01*
X9483429Y-12225190D02*
X9445334Y-12225190D01*
X9445334Y-12225190D02*
X9426286Y-12234714D01*
X9512001Y-12349000D02*
X9492953Y-12358524D01*
X9492953Y-12358524D02*
X9445334Y-12358524D01*
X9445334Y-12358524D02*
X9426286Y-12349000D01*
X9426286Y-12349000D02*
X9416762Y-12329952D01*
X9416762Y-12329952D02*
X9416762Y-12310905D01*
X9416762Y-12310905D02*
X9426286Y-12291857D01*
X9426286Y-12291857D02*
X9445334Y-12282333D01*
X9445334Y-12282333D02*
X9492953Y-12282333D01*
X9492953Y-12282333D02*
X9512001Y-12272809D01*
X9578667Y-12225190D02*
X9654858Y-12225190D01*
X9607239Y-12158524D02*
X9607239Y-12329952D01*
X9607239Y-12329952D02*
X9616762Y-12349000D01*
X9616762Y-12349000D02*
X9635810Y-12358524D01*
X9635810Y-12358524D02*
X9654858Y-12358524D01*
X9797715Y-12349000D02*
X9778667Y-12358524D01*
X9778667Y-12358524D02*
X9740572Y-12358524D01*
X9740572Y-12358524D02*
X9721524Y-12349000D01*
X9721524Y-12349000D02*
X9712001Y-12329952D01*
X9712001Y-12329952D02*
X9712001Y-12253762D01*
X9712001Y-12253762D02*
X9721524Y-12234714D01*
X9721524Y-12234714D02*
X9740572Y-12225190D01*
X9740572Y-12225190D02*
X9778667Y-12225190D01*
X9778667Y-12225190D02*
X9797715Y-12234714D01*
X9797715Y-12234714D02*
X9807239Y-12253762D01*
X9807239Y-12253762D02*
X9807239Y-12272809D01*
X9807239Y-12272809D02*
X9712001Y-12291857D01*
X9978667Y-12358524D02*
X9978667Y-12158524D01*
X9978667Y-12349000D02*
X9959620Y-12358524D01*
X9959620Y-12358524D02*
X9921524Y-12358524D01*
X9921524Y-12358524D02*
X9902477Y-12349000D01*
X9902477Y-12349000D02*
X9892953Y-12339476D01*
X9892953Y-12339476D02*
X9883429Y-12320428D01*
X9883429Y-12320428D02*
X9883429Y-12263286D01*
X9883429Y-12263286D02*
X9892953Y-12244238D01*
X9892953Y-12244238D02*
X9902477Y-12234714D01*
X9902477Y-12234714D02*
X9921524Y-12225190D01*
X9921524Y-12225190D02*
X9959620Y-12225190D01*
X9959620Y-12225190D02*
X9978667Y-12234714D01*
X10054858Y-12434714D02*
X10064382Y-12425190D01*
X10064382Y-12425190D02*
X10083429Y-12396619D01*
X10083429Y-12396619D02*
X10092953Y-12377571D01*
X10092953Y-12377571D02*
X10102477Y-12349000D01*
X10102477Y-12349000D02*
X10112001Y-12301381D01*
X10112001Y-12301381D02*
X10112001Y-12263286D01*
X10112001Y-12263286D02*
X10102477Y-12215667D01*
X10102477Y-12215667D02*
X10092953Y-12187095D01*
X10092953Y-12187095D02*
X10083429Y-12168048D01*
X10083429Y-12168048D02*
X10064382Y-12139476D01*
X10064382Y-12139476D02*
X10054858Y-12129952D01*
M02*
